<svg id="图层_1" data-name="图层 1" xmlns="http://www.w3.org/2000/svg" viewBox="0 0 62 62"><defs><style>.cls-1{fill:#e2e5e7;}.cls-2{fill:#b0b7bd;}.cls-3{fill:#cad1d8;}.cls-4{fill:#207447;}.cls-5{fill:#fff;}</style></defs><title>xls，</title><path class="cls-1" d="M14.65,0a3.88,3.88,0,0,0-3.87,3.88V58.13A3.88,3.88,0,0,0,14.65,62H53.4a3.88,3.88,0,0,0,3.88-3.87V15.5L41.78,0Z"/><path class="cls-2" d="M45.65,15.5H57.28L41.78,0V11.63A3.88,3.88,0,0,0,45.65,15.5Z"/><path class="cls-3" d="M57.28,27.13,45.65,15.5H57.28Z"/><path class="cls-4" d="M49.53,50.38a1.94,1.94,0,0,1-1.94,1.93H5A1.94,1.94,0,0,1,3,50.38V31A1.94,1.94,0,0,1,5,29.06H47.59A1.94,1.94,0,0,1,49.53,31Z"/><path class="cls-3" d="M47.59,52.31H10.78v1.94H47.59a1.94,1.94,0,0,0,1.94-1.94V50.38A1.94,1.94,0,0,1,47.59,52.31Z"/><path class="cls-5" d="M10.66,44.34l3.17-4.12-2.55-3.35a.75.75,0,0,1-.31-.65c0-.68.45-1.06,1.24-1.14a1.93,1.93,0,0,1,1.06.6l1.93,2.69,2-2.69a1.73,1.73,0,0,1,1.06-.6,1.2,1.2,0,0,1,1.18,1.14.82.82,0,0,1-.25.65l-2.55,3.35,3.11,4.12a1.76,1.76,0,0,1,.31.78c-.08.63-.49,1-1.24,1a1.13,1.13,0,0,1-1-.42L15.2,42.19l-2.62,3.46a1.13,1.13,0,0,1-1,.42c-.75,0-1.14-.32-1.18-1A1,1,0,0,1,10.66,44.34Z"/><path class="cls-5" d="M23.07,44.82V36.28c0-.76.45-1.16,1.34-1.2s1.28.44,1.33,1.2V44h5c.84,0,1.28.4,1.33,1.08a1.2,1.2,0,0,1-1.33,1h-6.3C23.52,46.07,23.07,45.65,23.07,44.82Z"/><path class="cls-5" d="M37.67,35c2.24.12,3.41.62,3.5,1.5A1.11,1.11,0,0,1,40,37.65a5.65,5.65,0,0,1-1-.12,4.41,4.41,0,0,0-1.4-.3q-1.47.06-1.47,1c0,.44.67.83,2,1.19,2.66.64,4,1.75,4,3.35q-.28,3.23-4.62,3.4c-2.85,0-4.3-.58-4.35-1.61q.07-1,1.2-1.08a4.83,4.83,0,0,1,1.19.3,7.31,7.31,0,0,0,1.82.3c1.16,0,1.77-.44,1.82-1.31,0-.48-.75-.9-2.24-1.26-2.48-.6-3.71-1.59-3.71-3Q33.47,35.33,37.67,35Z"/></svg>