<svg id="图层_1" data-name="图层 1" xmlns="http://www.w3.org/2000/svg" viewBox="0 0 62 62"><defs><style>.cls-1{fill:#e2e5e7;}.cls-2{fill:#b0b7bd;}.cls-3{fill:#cad1d8;}.cls-4{fill:#1f7246;}.cls-5{font-size:10.62px;fill:#fff;font-family:FZY4JW--GB1-0, FZCuYuan-M03S;letter-spacing:0.07em;}</style></defs><title>xlsx</title><path class="cls-1" d="M15.5,0a3.88,3.88,0,0,0-3.87,3.88V58.13A3.88,3.88,0,0,0,15.5,62H54.25a3.89,3.89,0,0,0,3.88-3.87V15.5L42.63,0Z"/><path class="cls-2" d="M46.5,15.5H58.13L42.63,0V11.63A3.88,3.88,0,0,0,46.5,15.5Z"/><path class="cls-3" d="M58.13,27.13,46.5,15.5H58.13Z"/><path class="cls-4" d="M50.38,50.38a2,2,0,0,1-1.94,1.93H5.81a1.94,1.94,0,0,1-1.93-1.93V31a1.94,1.94,0,0,1,1.93-1.94H48.44A2,2,0,0,1,50.38,31Z"/><path class="cls-3" d="M48.44,52.31H11.63v1.94H48.44a2,2,0,0,0,1.94-1.94V50.38A2,2,0,0,1,48.44,52.31Z"/><text class="cls-5" transform="translate(12.65 45.2) scale(1.14 1)">XLSX</text></svg>